<?xml version="1.0" encoding="UTF-8"?>
<svg xmlns="http://www.w3.org/2000/svg"
     version="1.2"
     baseProfile="tiny-ps"
     viewBox="0 0 1080 1080"
     preserveAspectRatio="xMidYMid meet">
  <title>ONERABBIT</title>
  <desc>ONERABBIT brand mark</desc>
  <g fill="#000000">
    <path d="M589.3,846.48c-18.06,3.1-48.48,17.79-65.73,8.81l-168.75-107.11,18.88-55.03,133.83-103.2-20.13,77.68,107.24,95.73-5.34,83.13Z"/>
    <polygon points="664.66 493.79 494.62 355.43 493.4 221.84 612.73 348.43 664.66 493.79"/>
    <path d="M674.22,775.75l-50.96,72.05c-9.87-24.01-1.78-45.09.23-70.67,13.28-5.52,27.12-8.18,50.73-1.38Z"/>
    <path d="M737.77,583.85L279.94,229.16l42.01,181.11,236.47,127.66-41.55,124.42,104.43,85.16,127.28-3.03,44.9-57.03c-19.97-30.29-24.67-79.56-55.7-103.6ZM647.19,599.25c15.66.63,51.39,7.41,54.46,34.83-12.63,18.56-56.71-8.34-54.46-34.83Z"/>
  </g>
</svg>
